<?xml version="1.0" encoding="iso-8859-1"?>
<!DOCTYPE svg PUBLIC "-//W3C//DTD SVG 1.1//EN" "http://www.w3.org/Graphics/SVG/1.1/DTD/svg11.dtd">
<svg version="1.1" xmlns="http://www.w3.org/2000/svg" xmlns:xlink="http://www.w3.org/1999/xlink" xml:space="preserve">
	<defs>
		<svg id="intersection" x="0px" y="0px" viewBox="0 0 58 58" style="enable-background:new 0 0 58 58;">
			<polygon style="fill:#AFB6BB;" points="42,16 42,0 0,0 0,42 16,42 16,58 58,58 58,16 	"/>
			<rect x="16" y="16" style="fill:#556080;" width="26" height="26"/>
		</svg>
		<svg id="properties" viewBox="0 0 96 96" x="0px" y="0px">
			<path d="M78.93,46.63,76.25,49V28.39A2,2,0,0,0,75.66,27l-23-22.92,0,0a2,2,0,0,0-1.43-.61l-.16,0H16.8a10,10,0,0,0-10,10V86.58a10,10,0,0,0,10,10H66.25a10,10,0,0,0,10-10V71.85l14-12.27A8.6,8.6,0,0,0,78.93,46.63ZM53.23,10.24,69.46,26.44H55.23a2,2,0,0,1-2-2Zm19,76.34a6,6,0,0,1-6,6H16.8a6,6,0,0,1-6-6V13.42a6,6,0,0,1,6-6H49.23v17a6,6,0,0,0,6,6h17V52.49L56.05,66.67a2,2,0,0,0-.64,1.09L53.18,78.31a2,2,0,0,0,2,2.41h.11l10.93-.62a2,2,0,0,0,1.2-.49l4.86-4.26Zm15.38-30L65.27,76.15l-7.63.44,1.55-7.35L81.57,49.64a4.6,4.6,0,0,1,6.06,6.92Z"/><path d="M20.52,40h20a2,2,0,0,0,0-4h-20a2,2,0,1,0,0,4Z"/><path d="M20.52,54h40a2,2,0,0,0,0-4h-40a2,2,0,1,0,0,4Z"/><path d="M48.52,64h-28a2,2,0,0,0,0,4h28a2,2,0,0,0,0-4Z"/><path d="M48.52,78h-28a2,2,0,0,0,0,4h28a2,2,0,0,0,0-4Z"/>
		</svg>
		<svg id="lamp" viewBox="0 0 48 48">
			<defs><style>.cls-1{fill:#a4b0c0;}.cls-2{fill:#fed049;}.cls-3{fill:#f6b445;}.cls-4{fill:#d0d7df;}</style></defs>
			<rect class="cls-1" height="4" rx="1" ry="1" width="16" x="16" y="41"/>
			<ellipse class="cls-1" cx="24" cy="47" rx="3" ry="1"/>
			<path class="cls-2" d="M40.944,15.605a16.993,16.993,0,0,1-8.881,16.366A3.96,3.96,0,0,0,30,35.464V36H18v-.535a3.94,3.94,0,0,0-2.045-3.484A17,17,0,1,1,40.944,15.605Z"/>
			<path class="cls-3" d="M32.06,31.97A3.957,3.957,0,0,0,30,35.46V36H23.64a4.3,4.3,0,0,1,1.74-3.25c4.777-3.185,9.427-7.229,10.533-13.153A21.093,21.093,0,0,0,32.6,4.756,9.682,9.682,0,0,0,25.83.1a17,17,0,0,1,6.23,31.87Z"/>
			<rect class="cls-1" height="4" rx="1" ry="1" width="16" x="16" y="36"/>
			<path class="cls-4" d="M18,45H30l-1.414,1.414A2,2,0,0,1,27.172,47H20.828a2,2,0,0,1-1.414-.586Z"/>
			<rect class="cls-4" height="1" width="12" x="18" y="40"/>
		</svg>
		<svg id="sun" viewBox="0 0 64 64" >
			<defs><style>.sun-1{fill:#efcc00;}.sun-2{fill:none;stroke:#efcc00;stroke-linecap:round;stroke-miterlimit:10;stroke-width:3px;}</style></defs>
			<circle class="sun-1" cx="32" cy="32" r="17"/>
			<line class="sun-2" x1="32" x2="32" y1="5" y2="11"/>
			<line class="sun-2" x1="32" x2="32" y1="53" y2="59"/>
			<line class="sun-2" x1="59" x2="53" y1="32" y2="32"/>
			<line class="sun-2" x1="11" x2="5" y1="32" y2="32"/>
			<line class="sun-2" x1="51.09" x2="46.85" y1="12.91" y2="17.15"/>
			<line class="sun-2" x1="17.15" x2="12.91" y1="46.85" y2="51.09"/>
			<line class="sun-2" x1="51.09" x2="46.85" y1="51.09" y2="46.85"/>
			<line class="sun-2" x1="17.15" x2="12.91" y1="17.15" y2="12.91"/>
		</svg>
		<svg id="vk" viewBox="4 4 46 46">
			<path d="M45,1H5C2.8,1,1,2.8,1,5v40c0,2.2,1.8,4,4,4h40c2.2,0,4-1.8,4-4V5C49,2.8,47.2,1,45,1z" fill="#54769B"/>
			<path d="M26,34c1,0,1-1.4,1-2c0-1,1-2,2-2s2.7,1.7,4,3c1,1,1,1,2,1s3,0,3,0s2-0.1,2-2c0-0.6-0.7-1.7-3-4  c-2-2-3-1,0-5c1.8-2.5,3.2-4.7,3-5.3c-0.2-0.6-5.3-1.6-6-0.7c-2,3-2.4,3.7-3,5c-1,2-1.1,3-2,3c-0.9,0-1-1.9-1-3c0-3.3,0.5-5.6-1-6  c0,0-2,0-3,0c-1.6,0-3,1-3,1s-1.2,1-1,1c0.3,0,2-0.4,2,1c0,1,0,2,0,2s0,4-1,4c-1,0-3-4-5-7c-0.8-1.2-1-1-2-1c-1.1,0-2,0-3,0
			c-1,0-1.1,0.6-1,1c2,5,3.4,8.1,7.2,12.1c3.5,3.6,5.8,3.8,7.8,3.9C25.5,34,25,34,26,34z" fill="#FFFFFF"/>
		</svg>
		<svg id="facebook" viewBox="0 0 512 512">
			<defs><style>.cls-1{fill:#4267b2;}.cls-2{fill:#fff;}</style></defs>
			<path class="cls-1" d="M483.74,0H28.26A28.26,28.26,0,0,0,0,28.26V483.74A28.26,28.26,0,0,0,28.26,512H273.5V314H207V236.5h66.5v-57c0-66.13,40.39-102.14,99.38-102.14,28.25,0,52.54,2.1,59.62,3v69.11l-40.68,0c-32.1,0-38.32,15.25-38.32,37.64V236.5h76.74l-10,77.5H353.5V512H483.74A28.26,28.26,0,0,0,512,483.74V28.26A28.26,28.26,0,0,0,483.74,0Z"/>
			<path class="cls-2" d="M353.5,512V314h66.75l10-77.5H353.5V187.14c0-22.39,6.22-37.64,38.32-37.64l40.68,0V80.37c-7.08-.94-31.37-3-59.62-3-59,0-99.38,36-99.38,102.14v57H207V314h66.5V512Z"/>
		</svg>
		<svg id="whatsapp" viewBox="0 0 58 58">
			<path style="fill:#2CB742;" d="M0,58l4.988-14.963C2.457,38.78,1,33.812,1,28.5C1,12.76,13.76,0,29.5,0S58,12.76,58,28.5
				S45.24,57,29.5,57c-4.789,0-9.299-1.187-13.26-3.273L0,58z"/>
			<path style="fill:#FFFFFF;" d="M47.683,37.985c-1.316-2.487-6.169-5.331-6.169-5.331c-1.098-0.626-2.423-0.696-3.049,0.42
				c0,0-1.577,1.891-1.978,2.163c-1.832,1.241-3.529,1.193-5.242-0.52l-3.981-3.981l-3.981-3.981c-1.713-1.713-1.761-3.41-0.52-5.242
				c0.272-0.401,2.163-1.978,2.163-1.978c1.116-0.627,1.046-1.951,0.42-3.049c0,0-2.844-4.853-5.331-6.169
				c-1.058-0.56-2.357-0.364-3.203,0.482l-1.758,1.758c-5.577,5.577-2.831,11.873,2.746,17.45l5.097,5.097l5.097,5.097
				c5.577,5.577,11.873,8.323,17.45,2.746l1.758-1.758C48.048,40.341,48.243,39.042,47.683,37.985z"/>
		</svg>
		<svg id="ruler" viewBox="0 0 48 48">
			<style type="text/css">.st0{fill:#141414;}.st1{fill:#FFFFFF;}</style>
			<path class="st0" d="M46.4,40H1.6c-0.8,0-1.5-0.7-1.5-1.5V27.9c0-0.8,0.7-1.5,1.5-1.5h44.7c0.8,0,1.5,0.7,1.5,1.5v10.6C47.8,39.3,47.2,40,46.4,40z"/>
			<path class="st1" d="M2.4,30.9L2.4,30.9c-0.3,0-0.6-0.3-0.6-0.6v-2.9c0-0.3,0.3-0.6,0.6-0.6l0,0c0.3,0,0.6,0.3,0.6,0.6v2.9C3,30.6,2.7,30.9,2.4,30.9z"/>
			<path class="st1" d="M13.2,30.9L13.2,30.9c-0.3,0-0.6-0.3-0.6-0.6v-2.9c0-0.3,0.3-0.6,0.6-0.6l0,0c0.3,0,0.6,0.3,0.6,0.6v2.9C13.8,30.6,13.5,30.9,13.2,30.9z"/>
			<path class="st1" d="M24,30.9L24,30.9c-0.3,0-0.6-0.3-0.6-0.6v-2.9c0-0.3,0.3-0.6,0.6-0.6l0,0c0.3,0,0.6,0.3,0.6,0.6v2.9C24.6,30.6,24.3,30.9,24,30.9z"/>
			<path class="st1" d="M34.8,30.9L34.8,30.9c-0.3,0-0.6-0.3-0.6-0.6v-2.9c0-0.3,0.3-0.6,0.6-0.6l0,0c0.3,0,0.6,0.3,0.6,0.6v2.9C35.3,30.6,35.1,30.9,34.8,30.9z"/>
			<path class="st1" d="M45.5,30.9L45.5,30.9c-0.3,0-0.6-0.3-0.6-0.6v-2.9c0-0.3,0.3-0.6,0.6-0.6l0,0c0.3,0,0.6,0.3,0.6,0.6v2.9C46.1,30.6,45.8,30.9,45.5,30.9z"/>
			<circle class="st1" cx="45.3" cy="33.2" r="1.1"/>
			<path class="st0" d="M2.7,24.6H2.6c-0.4,0-0.7-0.3-0.7-0.7V5.6c0-0.4,0.3-0.7,0.7-0.7h0.1c0.4,0,0.7,0.3,0.7,0.7v18.3C3.4,24.3,3.1,24.6,2.7,24.6z"/>
			<path class="st0" d="M45.3,24.6L45.3,24.6c-0.5,0-0.8-0.3-0.8-0.7V5.5c0-0.4,0.3-0.7,0.7-0.7h0.1c0.4,0,0.7,0.3,0.7,0.7v18.3C46.1,24.2,45.7,24.6,45.3,24.6z"/>
			<path class="st0" d="M43.1,13.5l-6.7-3.1c-0.6-0.3-1.3,0-1.6,0.6l0,0c-0.3,0.6,0,1.3,0.6,1.6l6.7,3.1c0.6,0.3,1.3,0,1.6-0.6l0,0C44,14.5,43.7,13.8,43.1,13.5z"/>
			<path class="st0" d="M35.5,16.8l6.7-3.2c0.6-0.3,1.3,0,1.6,0.6l0,0c0.3,0.6,0,1.3-0.6,1.6L36.5,19c-0.6,0.3-1.3,0-1.6-0.6l0,0C34.6,17.8,34.8,17.1,35.5,16.8z"/>
			<rect x="7.8" y="13.5" class="st0" width="32.3" height="2.5"/>
			<path class="st0" d="M5,13.6l6.7-3.1c0.6-0.3,1.3,0,1.6,0.6l0,0c0.3,0.6,0,1.3-0.6,1.6L6,15.8c-0.6,0.3-1.3,0-1.6-0.6l0,0C4.2,14.6,4.4,13.9,5,13.6z"/>
			<path class="st0" d="M12.7,16.9L6,13.7c-0.6-0.3-1.3,0-1.6,0.6l0,0c-0.3,0.6,0,1.3,0.6,1.6l6.7,3.2c0.6,0.3,1.3,0,1.6-0.6l0,0C13.6,17.9,13.3,17.2,12.7,16.9z"/>
		</svg>
	</defs>
</svg>
