<?xml version="1.0" encoding="utf-8"?>
<!-- Generator: Adobe Illustrator 18.1.1, SVG Export Plug-In . SVG Version: 6.00 Build 0)  -->
<!DOCTYPE svg PUBLIC "-//W3C//DTD SVG 1.1//EN" "http://www.w3.org/Graphics/SVG/1.1/DTD/svg11.dtd">
<svg version="1.1" id="Layer_1" xmlns="http://www.w3.org/2000/svg" xmlns:xlink="http://www.w3.org/1999/xlink" x="0px" y="0px"
	 width="551.2px" height="461.9px" viewBox="0 0 551.2 461.9" enable-background="new 0 0 551.2 461.9" xml:space="preserve">
<polygon fill="#454545" points="551.2,42.9 544.7,42.9 544.7,0.2 537.8,0.2 533.7,0.2 254.4,0.2 254.4,0 187.8,0 187.8,0.2 0,0.2 
	0,8.2 10,8.2 10,458.9 25.4,458.9 25.4,439.9 109.6,439.9 109.6,441.3 197.2,441.3 197.2,439.5 355.4,439.5 355.4,441.2 
	443.9,441.2 443.9,439.5 526,439.5 526,461.9 544.7,461.9 544.7,439.5 544.7,430.5 544.7,425.5 544.7,421.5 544.7,174.3 
	544.7,167.5 544.7,50.9 551.2,50.9 "/>
<path fill="#EDDBC3" d="M52.1,190h5.1v-7.5h-1.9v-6.3h-0.5v6.3H18v-35.2h8.8v-0.5H18v-13.2h18.7v5h0.5v-5h19.8v12.3h115.5
	c1.1,0.9,15.7,13.1,15.7,31.4c0,18.4-16.6,27.5-17.6,28.1H62.3c-8.5,0-10.2-7.3-10.2-7.6V190z"/>
<rect x="68" y="149.3" fill="#454545" width="44.5" height="31.9"/>
<rect x="68.5" y="149.8" fill="#FFFFFF" width="43.5" height="30.9"/>
<polygon fill="#454545" points="51.6,161.1 54.8,165.3 54.8,172.2 55.2,172.2 55.2,165.2 52,160.8 "/>
<rect x="42.7" y="155.4" transform="matrix(-0.7386 -0.6742 0.6742 -0.7386 -24.5288 301.8691)" fill="#454545" width="7" height="0.5"/>
<path fill="#EDDBC3" d="M532.6,159.1h-1.9c-0.5,0-0.7-0.5-0.8-0.6v-48.6h1.4v47.9h1.3V159.1z"/>
<path fill="#EDDBC3" d="M532.5,97.1h-1.2v10.3h-1.4v-9.1c0-0.8,0.2-1.4,0.7-1.8c0.6-0.6,1.5-0.7,2-0.7V97.1z"/>
<rect x="529.9" y="107.9" fill="#EDDBC3" width="2.6" height="1.4"/>
<polygon fill="#D4D4EB" points="532.6,156.5 532.6,157.2 531.8,157.2 531.8,109.8 532.5,109.8 532.5,110.4 533.7,110.4 533.7,156.5 
	"/>
<rect x="533" y="107.1" fill="#EDDBC3" width="0.7" height="2.8"/>
<rect x="533.1" y="157" fill="#EDDBC3" width="0.6" height="2.9"/>
<polygon fill="#D4D4EB" points="533.7,106.6 532.5,106.6 532.5,107.4 531.8,107.4 531.8,97.6 532.5,97.6 532.5,98.2 533.7,98.2 "/>
<rect x="533" y="95.8" fill="#EDDBC3" width="0.7" height="1.9"/>
<rect x="393.1" y="8.3" fill="#FFFFFF" width="87.2" height="44.3"/>
<rect x="392.8" y="166.8" fill="#B2A18E" width="52.8" height="0.8"/>
<rect x="392.8" y="138.6" fill="#B2A18E" width="52.8" height="27.6"/>
<path fill="#EDDBC3" d="M380.3,74h-2.8v43.3c-19.5-1-29.3-12.2-34.1-21.6c-5.4-10.7-5.8-21.6-5.8-21.7l-0.5,0c0,0.1-1.3,11-7.4,21.7
	c-5.4,9.5-15.7,20.6-34.7,21.6V74h-1.5v-7h-4.2V44.8h4.7v20.5h41.1V44.8h2.4v-8.1h-0.5v7.6h-1.9V23.8H294v20.5h-4.7V20.8h47.7v7.1
	h0.5v-8.4h-0.2V8.3h48V66h-5V74z"/>
<polygon fill="#FFFFFF" points="294.5,44.3 294.5,24.3 334.6,24.3 334.6,44.3 326.5,44.3 326.5,44.8 334.6,44.8 334.6,64.7 
	294.5,64.7 294.5,44.8 300.8,44.8 300.8,44.3 "/>
<rect x="487.2" y="35.5" fill="#D4D4EB" width="46.5" height="13.6"/>
<rect x="487.2" y="8.3" fill="#888888" width="46.5" height="21.9"/>
<rect x="174.2" y="8.2" fill="#EDDBC3" width="21.8" height="35.4"/>
<polygon fill="#FFFFFF" points="169.9,16.6 169.9,10.3 172.8,10.3 172.8,56.1 120.4,56.1 120.4,26.3 121.1,26.3 121.1,25.8 
	120.4,25.8 120.4,10.3 169.4,10.3 169.4,16.6 "/>
<polygon fill="#EDDBC3" points="119.9,9.8 119.9,25.8 118.9,25.8 118.9,8.2 169.4,8.2 169.4,9.8 "/>
<polygon fill="#EDDBC3" points="54.8,8.2 54.8,14.2 55.2,14.2 55.2,8.2 118.4,8.2 118.4,25.8 116.9,25.8 116.9,19.6 116.4,19.6 
	116.4,25.8 113.2,25.8 113.2,26.3 118.4,26.3 118.4,45.1 56.6,45.1 56.6,87.8 37.1,87.8 37.1,83.4 36.6,83.4 36.6,87.8 18,87.8 
	18,44.2 26.6,44.2 26.6,43.7 18,43.7 18,8.2 "/>
<polygon fill="#FFFFFF" points="37.1,90.7 37.1,89.4 57.6,89.4 57.6,133.1 37.1,133.1 37.1,129.2 36.6,129.2 36.6,133.1 22.9,133.1 
	22.9,89.4 36.6,89.4 36.6,90.7 "/>
<rect x="18" y="89.4" fill="#EDDBC3" width="4.4" height="43.7"/>
<rect x="18" y="88.3" fill="#EDDBC3" width="18.7" height="0.7"/>
<rect x="25.4" y="429.2" fill="#EDDBC3" width="76.6" height="2.7"/>
<rect x="110.1" y="421.8" fill="#FFFFFF" width="86.7" height="19"/>
<path fill="#EDDBC3" d="M110,421.3L110,421.3l-92-0.1V190h33.6l0,7.9c0,0.1,1.8,8,10.7,8h108.2l0.1,0c0.2-0.1,18-9.3,18-28.6
	c0-19.2-15.8-31.7-15.9-31.9l-0.1-0.1H57.4v-11.8h0.7V88.9h-21v-0.7h20V45.6h61.8V26.3h1v30.3h53.3V9.8h-3.4V8.2h3.9v35.9h22.8V8.2
	h3.4V0.5h53.1v5.9h-0.2c0,27.5-13.9,40.9-25.7,47.3c-10.2,5.6-20.4,7-24.2,7.3V8.3h-3v53.1h1.5l0,0.2c0.1,0,13.1-0.5,25.9-7.5
	c11.6-6.3,25.3-19.4,25.9-45.8h27.1V74h4.4h4.4h2.7v43.7h0.3v0.2c20.9,0,32.1-11.9,37.8-22c4.6-8,6.5-16.1,7.1-19.8
	c0.4,3.7,1.7,11.8,5.7,19.8c5.1,10,15.7,22,37.4,22v-0.2h0.2V74h4.8v5.9h7.2v52.3h-7.3v35.3h-18.4v5h-0.2c0,0.5,0,1,0,1.5h-51.7
	v-6.6h-5.4v-17.3v-2.2v-5.5h-59.6h-1.4h-5.8v19.3c-8.9,0.7-26.2,3.5-38.4,15.2c-9,8.7-13.7,20.6-13.9,35.4H189v2.5h53.4v206.8h-45.2
	v-0.2H110z"/>
<path fill="#F3CF9A" d="M317.7,174.5h48.8c-0.3,18.4-5.6,32.2-15.5,41.1c-13,11.6-30.2,11-33.3,10.7V174.5z"/>
<path fill="#EDDBC3" d="M242.5,213.5v-1.2h-51.7c0.2-14.7,4.9-26.5,13.8-35c16.8-16.2,43.5-15.3,43.8-15.3l0-0.2h1.4v-11.6h52.4
	v69.6h-52.4v-6.2H242.5z"/>
<rect x="355.9" y="421.8" fill="#FFFFFF" width="87.5" height="18.9"/>
<path fill="#F3CF9A" d="M533.7,421.5h-89.8v-0.2h-88.5v0.2h-46v-25.7h-2v-0.2h-10v0.5h4.8v25.4h-52.4v-25.4h4.5v-0.5h-4.5v-61.3h4.5
	v-0.5h-4.5v-23h4.5v-0.5h-4.5v-60.4h4.5v-0.5h-4.5v-22.2h52.4v22.2h-4.8v0.5h4.8v2.9h3.6v0.2c0.2,0,13.9,0.1,27.4,6.4
	c12.2,5.7,26.6,17.8,27.3,43.1h-51.1v3.2h-7.2v4.5h-4.8v0.5h4.8v23h-4.8v0.5h4.8v8.2h3.6v0.2c17.2,0,30.8,4.9,40.3,14.6
	c12.5,12.7,14.2,30.2,14.4,35.3h-51.1v3h52.3v-3H361c-0.2-5.2-2-22.8-14.6-35.7c-8.9-9.1-21.4-14-37-14.7v-35.7h52.3v-4H361
	c-0.7-25.5-15.3-37.8-27.6-43.5c-9.4-4.4-19-5.8-24-6.3v-78.4h3.9v0.1h1.4v52.7h3v-0.4c0.5,0,1.5,0.1,2.7,0.1
	c6.2,0,20-1.2,30.9-10.9c10.1-9,15.3-22.9,15.7-41.5h9v-0.2h157.7V421.5z"/>
<path fill="#FFFFFF" d="M472.1,164c0.5-0.7,1.5-1,2.7-1l48.4,0c0.1,0,2.7,0.2,2.9,3.3h-1c0-0.3,0-0.7-0.3-1.1
	c-0.4-0.5-1.1-0.8-2.1-0.8l-48.6,0c-0.5,0.1-1.5,0.6-1.6,1.9h-0.9C471.5,165.8,471.4,164.8,472.1,164z"/>
<path fill="#FFFFFF" d="M510.8,145.9c-0.6,0-1-0.1-1-0.1l-2.4,0c0,0-0.4,0.1-1,0.1c-2.6,0-8.5-0.9-8.5-8.9
	c0-10.4,6.4-17.1,10.8-17.1s10.8,6.6,10.8,17.1C519.4,145,513.4,145.9,510.8,145.9z"/>
<path fill="#FFFFFF" d="M506.4,146.4c0.6,0,1-0.1,1-0.1l2.3,0c0,0,0.4,0.1,1.1,0.1c1.3,0,3.3-0.2,5.1-1.3c-0.2,0.8-0.5,2.3-0.6,3.6
	h-13.5c0-1.3-0.4-2.8-0.6-3.6C503.2,146.2,505.3,146.4,506.4,146.4z"/>
<path fill="#FFFFFF" d="M517,149.2c5,0,6,4.5,6,4.7v8.6h-28.8v-9.2c0-3.9,4.4-4,4.6-4H517z"/>
<path fill="#FFFFFF" d="M494.2,164.8h28.4c0.1,0,0.2,0,0.3,0v0.8h-28.8V164.8z"/>
<path fill="#D4D4EB" d="M523.5,166.1v-1.2c0.4,0.1,0.7,0.2,0.9,0.5c0.2,0.3,0.2,0.6,0.2,0.8h-1.1v1.2H474v-1.2h-1
	c0.1-1.2,1.2-1.4,1.2-1.4h19.6v1.3H523.5z"/>
<rect x="524" y="166.8" fill="#EDDBC3" width="2.1" height="0.8"/>
<rect x="471.4" y="166.8" fill="#EDDBC3" width="2.1" height="0.8"/>
<path fill="#D4D4EB" d="M526.6,167.5v-1.2h0c-0.1-3-2.4-3.6-3.1-3.8l0-8.6c0-0.1-1.1-5.1-6.5-5.1h-1.1c0.1-1.6,0.6-3.5,0.7-4
	c1.8-1.3,3.3-3.6,3.3-7.8c0-10.9-6.6-17.6-11.2-17.6c-4.7,0-11.2,6.7-11.2,17.6c0,3.5,1.1,6.1,3.3,7.7c0.1,0.4,0.6,2.4,0.7,4h-2.6
	c-0.1,0-5.1,0.1-5.1,4.5v9.2h-18.9c-1.4,0-2.5,0.4-3.1,1.2c-0.7,0.9-0.7,2.1-0.7,2.6h-0.1v1.2h-24.8v-29.4h-53.3v-5.7
	c0.1,0,0.8,0.1,2,0.1c3.8,0,12.6-0.5,21.8-4.8c11.3-5.3,25.6-17.4,29.6-45.4l-0.5-0.1c-3.9,27.8-18.1,39.8-29.3,45
	c-11.2,5.2-21.7,4.8-23.3,4.8V79.9h0.1V82h52.7v-3h-52.7V53h87.2v3.2h4.8h2h5c0.2,2.7,1.1,9.9,4.7,16.9c4.2,8.3,12.9,18.1,31,18.1
	V91h0.7V56.2h-3v34.5c-16.2-0.8-24.3-10-28.2-17.8c-3.5-7-4.4-14-4.7-16.7h0.5v-6.6h35.7v6.6h4.8v39.1h-0.9c-0.1,0-1.6-0.1-2.5,0.8
	c-0.6,0.5-0.8,1.2-0.8,2.2v60.2l0,0.1c0,0,0.3,1,1.3,1h1.9v0.9h1.1v7.1H526.6z"/>
<path fill="#454545" d="M359.2,51.4c-7.9,0-14.3-6.4-14.3-14.3s6.4-14.3,14.3-14.3s14.3,6.4,14.3,14.3S367.1,51.4,359.2,51.4z"/>
<path fill="#FFFFFF" d="M359.2,23.4c-7.6,0-13.8,6.2-13.8,13.8s6.2,13.8,13.8,13.8S373,44.7,373,37.1S366.8,23.4,359.2,23.4z"/>
<path fill="#454545" d="M460.8,48.8h-58.4c-5.3,0-6.2-6.2-6.2-6.2l0-23.8c0-0.1,1-6.2,6.2-6.2H461l0,0c2.4,0.5,15.5,3.5,15.5,16.5
	v3.2c0,13-13.2,16-15.5,16.5l0,0H460.8z M402.4,13.1c-4.9,0-5.7,5.7-5.8,5.8l0,23.7c0,0.2,0.9,5.8,5.8,5.8l58.4,0
	c1.6-0.3,15.2-3,15.2-16v-3.2c0-13-13.7-15.7-15.2-16l0,0H402.4z"/>
<path fill="#454545" d="M403.7,32.1c-0.9,0-1.6-0.7-1.6-1.6s0.7-1.6,1.6-1.6s1.6,0.7,1.6,1.6S404.5,32.1,403.7,32.1z M403.7,29.4
	c-0.6,0-1.1,0.5-1.1,1.1s0.5,1.1,1.1,1.1c0.6,0,1.1-0.5,1.1-1.1S404.3,29.4,403.7,29.4z"/>
<path fill="#454545" d="M48.9,129c-3,0-5.5-2.4-5.5-5.5c0-3,2.4-5.5,5.5-5.5c3,0,5.5,2.4,5.5,5.5C54.3,126.5,51.9,129,48.9,129z
	 M48.9,118.6c-2.7,0-5,2.2-5,5c0,2.7,2.2,5,5,5c2.7,0,5-2.2,5-5C53.8,120.8,51.6,118.6,48.9,118.6z"/>
<path fill="#454545" d="M49.2,102.7c-2.5,0-4.5-2-4.5-4.5c0-2.5,2-4.5,4.5-4.5c2.5,0,4.5,2,4.5,4.5
	C53.7,100.7,51.7,102.7,49.2,102.7z M49.2,94.2c-2.2,0-4,1.8-4,4c0,2.2,1.8,4,4,4c2.2,0,4-1.8,4-4C53.2,96,51.4,94.2,49.2,94.2z"/>
<path fill="#454545" d="M31.2,103.2c-2.5,0-4.5-2-4.5-4.5c0-2.5,2-4.5,4.5-4.5s4.5,2,4.5,4.5C35.7,101.2,33.7,103.2,31.2,103.2z
	 M31.2,94.7c-2.2,0-4,1.8-4,4c0,2.2,1.8,4,4,4s4-1.8,4-4C35.2,96.5,33.4,94.7,31.2,94.7z"/>
<path fill="#454545" d="M31.2,130.7c-3.8,0-6.9-3.1-6.9-6.9c0-3.8,3.1-6.9,6.9-6.9c3.8,0,6.9,3.1,6.9,6.9
	C38.1,127.6,35,130.7,31.2,130.7z M31.2,117.4c-3.5,0-6.4,2.9-6.4,6.4c0,3.5,2.9,6.4,6.4,6.4c3.5,0,6.4-2.9,6.4-6.4
	C37.6,120.2,34.7,117.4,31.2,117.4z"/>
<path fill="#454545" d="M90.4,167.1c-1,0-1.7-0.8-1.7-1.7c0-1,0.8-1.7,1.7-1.7c1,0,1.7,0.8,1.7,1.7
	C92.1,166.3,91.3,167.1,90.4,167.1z M90.4,164.1c-0.7,0-1.2,0.6-1.2,1.2c0,0.7,0.6,1.2,1.2,1.2c0.7,0,1.2-0.6,1.2-1.2
	C91.6,164.7,91.1,164.1,90.4,164.1z"/>
<path fill="#454545" d="M84.4,179.4c-1,0-1.7-0.8-1.7-1.7s0.8-1.7,1.7-1.7c1,0,1.7,0.8,1.7,1.7S85.3,179.4,84.4,179.4z M84.4,176.5
	c-0.7,0-1.2,0.6-1.2,1.2s0.6,1.2,1.2,1.2c0.7,0,1.2-0.6,1.2-1.2S85.1,176.5,84.4,176.5z"/>
<path fill="#454545" d="M96.4,179.4c-1,0-1.7-0.8-1.7-1.7s0.8-1.7,1.7-1.7c1,0,1.7,0.8,1.7,1.7S97.4,179.4,96.4,179.4z M96.4,176.5
	c-0.7,0-1.2,0.6-1.2,1.2s0.6,1.2,1.2,1.2c0.7,0,1.2-0.6,1.2-1.2S97.1,176.5,96.4,176.5z"/>
<path fill="#454545" d="M90.3,178.7c-0.8,0-1.4-0.6-1.4-1.4v-8.6c0-0.8,0.6-1.4,1.4-1.4s1.4,0.6,1.4,1.4v8.6
	C91.7,178.1,91.1,178.7,90.3,178.7z M90.3,167.9c-0.5,0-0.9,0.4-0.9,0.9v8.6c0,0.5,0.4,0.9,0.9,0.9s0.9-0.4,0.9-0.9v-8.6
	C91.2,168.2,90.8,167.9,90.3,167.9z"/>
<path fill="#454545" d="M108.4,173.9H91.2v-5.1c0-0.5-0.4-0.9-0.9-0.9s-0.9,0.4-0.9,0.9v5.1H72.2c-1.2,0-2.2-1-2.2-2.2v-17.4
	c0-1.2,1-2.2,2.2-2.2h36.2c1.2,0,2.2,1,2.2,2.2v17.4C110.7,172.9,109.7,173.9,108.4,173.9z M91.7,173.4h16.7c1,0,1.8-0.8,1.8-1.8
	v-17.4c0-1-0.8-1.8-1.8-1.8H72.2c-1,0-1.8,0.8-1.8,1.8v17.4c0,1,0.8,1.8,1.8,1.8H89v-4.6c0-0.8,0.6-1.4,1.4-1.4s1.4,0.6,1.4,1.4
	V173.4z"/>
<path fill="#454545" d="M418.2,140.3c-6.6,0-11.9,5.2-11.9,11.7c0,1.4,0.2,2.7,0.7,3.9l0,0c0,0,0,0,0,0c1.6,4.5,6,7.8,11.2,7.8
	c6.6,0,11.9-5.2,11.9-11.7C430.1,145.6,424.8,140.3,418.2,140.3z"/>
<path fill="#FFFFFF" d="M418.2,140.8c6.3,0,11.4,5,11.4,11.2c0,1.6-0.3,3.1-0.9,4.4c-1.3,1.2-4.2,3.2-9.2,3.3v-6.4
	c0.4-0.3,0.6-0.8,0.6-1.3c0-1-0.8-1.8-1.8-1.8c-1,0-1.8,0.8-1.8,1.8c0,0.6,0.3,1.2,0.8,1.5v6.2c-6.6-0.1-9.6-3.6-9.9-4.1
	c-0.4-1.1-0.6-2.4-0.6-3.6C406.8,145.9,411.9,140.8,418.2,140.8z"/>
<path fill="#FFFFFF" d="M418.9,153.2c0,0-0.1,0.1-0.1,0.1c-0.1,0.1-0.3,0.1-0.4,0.1c0,0-0.1,0-0.1,0c-0.1,0-0.2,0-0.3-0.1
	c-0.1,0-0.1,0-0.2-0.1c-0.4-0.2-0.7-0.6-0.7-1.1c0-0.7,0.6-1.2,1.2-1.2c0.7,0,1.2,0.6,1.2,1.2C419.6,152.5,419.3,152.9,418.9,153.2z
	"/>
<path fill="#FFFFFF" d="M417.9,153.8C417.9,153.8,417.9,153.8,417.9,153.8c0.1,0,0.3,0.1,0.4,0.1c0,0,0.1,0,0.1,0c0,0,0.1,0,0.1,0
	c0.2,0,0.3-0.1,0.5-0.1v7.7c0,0.3-0.2,0.5-0.5,0.5c-0.3,0-0.5-0.2-0.5-0.5V153.8z"/>
<path fill="#FFFFFF" d="M418.2,163.2c-4.5,0-8.3-2.5-10.2-6.2c1.4,1.3,4.4,3.2,9.4,3.3v1.1c0,0.6,0.5,1,1,1c0.6,0,1-0.5,1-1v-1.1
	c4.2-0.1,7-1.5,8.6-2.7C426.1,160.9,422.5,163.2,418.2,163.2z"/>
<circle fill="#454545" cx="415.3" cy="161.4" r="1"/>
<circle fill="#FFFFFF" cx="415.3" cy="161.4" r="0.5"/>
<circle fill="#454545" cx="421.1" cy="161.4" r="1"/>
<circle fill="#FFFFFF" cx="421.1" cy="161.4" r="0.5"/>
<rect x="255.7" y="175.5" fill="#454545" width="42.7" height="32.8"/>
<rect x="256.2" y="176" fill="#FFFFFF" width="41.7" height="31.8"/>
<rect x="308.8" y="44.3" fill="#454545" width="9.5" height="0.5"/>
<rect x="261.9" y="310.3" fill="#454545" width="10" height="0.5"/>
<rect x="279.6" y="310.3" fill="#454545" width="10" height="0.5"/>
<rect x="261.9" y="249.4" fill="#454545" width="10" height="0.5"/>
<rect x="279.6" y="249.4" fill="#454545" width="10" height="0.5"/>
<rect x="261.9" y="333.8" fill="#454545" width="10" height="0.5"/>
<rect x="279.6" y="333.8" fill="#454545" width="10" height="0.5"/>
<rect x="261.9" y="395.6" fill="#454545" width="10" height="0.5"/>
<rect x="279.6" y="395.6" fill="#454545" width="10" height="0.5"/>
<path fill="#454545" d="M148.5,146.8h-35.6v35.9h35.6V146.8z M148,182.2h-34.6v-34.9H148V182.2z"/>
<polygon fill="#454545" points="30.8,146.8 30.8,147.3 37.6,147.3 40.7,150.7 41.1,150.4 37.9,146.8 "/>
<rect x="36.6" y="118.3" fill="#454545" width="0.5" height="7.3"/>
<rect x="36.6" y="106.7" fill="#454545" width="0.5" height="7.3"/>
<rect x="36.6" y="95.1" fill="#454545" width="0.5" height="7.3"/>
<rect x="36.6" y="71.8" fill="#454545" width="0.5" height="7.3"/>
<rect x="36.6" y="60.2" fill="#454545" width="0.5" height="7.3"/>
<rect x="36.6" y="48.6" fill="#454545" width="0.5" height="7.3"/>
<polygon fill="#454545" points="40.7,39.5 40.3,39.2 36.8,43.7 30.9,43.7 30.9,44.2 37,44.2 "/>
<rect x="45.7" y="31.1" transform="matrix(0.7422 0.6702 -0.6702 0.7422 34.9659 -21.8915)" fill="#454545" width="0.5" height="6.9"/>
<polygon fill="#454545" points="55.2,26.3 60,26.3 60,25.8 55.2,25.8 55.2,19.4 54.8,19.4 54.8,26.1 51.3,29.1 51.7,29.5 "/>
<polygon fill="#454545" points="73.8,25.8 69,25.8 69,19.6 68.5,19.6 68.5,25.8 63.8,25.8 63.8,26.3 73.8,26.3 "/>
<rect x="76.9" y="25.8" fill="#454545" width="7.9" height="0.5"/>
<rect x="89" y="25.8" fill="#454545" width="7.9" height="0.5"/>
<rect x="101.1" y="25.8" fill="#454545" width="7.9" height="0.5"/>
<rect x="125.4" y="25.8" fill="#454545" width="7.9" height="0.5"/>
<rect x="137.5" y="25.8" fill="#454545" width="7.9" height="0.5"/>
<rect x="149.6" y="25.8" fill="#454545" width="7.9" height="0.5"/>
<polygon fill="#454545" points="169.4,25.8 161.8,25.8 161.8,26.3 169.9,26.3 169.9,19.1 169.4,19.1 "/>
<rect x="116.4" y="8.2" fill="#454545" width="0.5" height="6.5"/>
<rect x="68.5" y="8.2" fill="#454545" width="0.5" height="6.5"/>
<path fill="#454545" d="M82.5,90.5h2.1v3.8l3-3.8h2.5l-3.8,4.9l4.2,6.1H88l-3.4-4.9v4.9h-2.1V90.5z"/>
<path fill="#454545" d="M91.8,90.5h2.1v10.9h-2.1V90.5z"/>
<path fill="#454545" d="M95.1,90.5h6v2.1h-2v8.9H97v-8.9h-1.9V90.5z"/>
<path fill="#454545" d="M112.6,92.5l-1.5,1.4c-1-1-2.1-1.6-3.3-1.6c-1,0-1.9,0.4-2.6,1.1c-0.7,0.7-1.1,1.6-1.1,2.6
	c0,0.7,0.2,1.4,0.5,1.9c0.3,0.6,0.8,1,1.3,1.3c0.6,0.3,1.2,0.5,1.9,0.5c0.6,0,1.2-0.1,1.7-0.3c0.5-0.2,1-0.6,1.6-1.2l1.4,1.5
	c-0.8,0.8-1.6,1.3-2.3,1.6c-0.7,0.3-1.5,0.5-2.5,0.5c-1.7,0-3.1-0.5-4.2-1.6c-1.1-1.1-1.6-2.5-1.6-4.1c0-1.1,0.2-2.1,0.7-2.9
	c0.5-0.8,1.2-1.5,2.1-2c0.9-0.5,1.9-0.8,3-0.8c0.9,0,1.8,0.2,2.6,0.6C111.3,91.2,112,91.8,112.6,92.5z"/>
<path fill="#454545" d="M114.4,90.5h2.1v4.1h3.6v-4.1h2.1v10.9h-2.1v-4.8h-3.6v4.8h-2.1V90.5z"/>
<path fill="#454545" d="M124.8,90.5h6v2h-3.9v2h3.9v2h-3.9v2.9h3.9v2h-6V90.5z"/>
<path fill="#454545" d="M132.7,90.5h2l4.7,7.2v-7.2h2.1v10.9h-2l-4.7-7.2v7.2h-2.1V90.5z"/>
<path fill="#454545" d="M219.5,61.9h5.4v2h-3.4v2h3.4v2h-3.4v4.9h-2.1V61.9z"/>
<path fill="#454545" d="M231.9,61.6c1.5,0,2.9,0.6,4,1.7c1.1,1.1,1.7,2.5,1.7,4.1c0,1.6-0.5,2.9-1.6,4c-1.1,1.1-2.4,1.7-4,1.7
	c-1.6,0-3-0.6-4.1-1.7c-1.1-1.1-1.6-2.5-1.6-4c0-1,0.3-2,0.8-2.9c0.5-0.9,1.2-1.6,2.1-2.1C230,61.8,230.9,61.6,231.9,61.6z
	 M231.9,63.6c-1,0-1.9,0.4-2.6,1.1c-0.7,0.7-1,1.6-1,2.7c0,1.2,0.4,2.2,1.3,2.9c0.7,0.5,1.4,0.8,2.3,0.8c1,0,1.8-0.4,2.5-1.1
	c0.7-0.7,1-1.6,1-2.6c0-1-0.3-1.9-1-2.6C233.8,64,232.9,63.6,231.9,63.6z"/>
<path fill="#454545" d="M238.8,61.9h2.2l2,3.9l2-3.9h2.2l-3.2,6.2v4.7H242v-4.7L238.8,61.9z"/>
<path fill="#454545" d="M249,61.9h6v2h-3.9v2h3.9v2h-3.9v2.9h3.9v2h-6V61.9z"/>
<path fill="#454545" d="M257,61.9h2.2c1.2,0,2.1,0.1,2.6,0.3c0.5,0.2,0.9,0.6,1.2,1.1c0.3,0.5,0.5,1.1,0.5,1.8
	c0,0.7-0.2,1.3-0.5,1.8c-0.3,0.5-0.9,0.8-1.6,1.1l2.6,4.9h-2.3l-2.5-4.6h-0.2v4.6H257V61.9z M259.1,66.1h0.7c0.7,0,1.1-0.1,1.4-0.3
	c0.2-0.2,0.4-0.5,0.4-0.9c0-0.2-0.1-0.4-0.2-0.6c-0.1-0.2-0.3-0.3-0.5-0.4c-0.2-0.1-0.6-0.1-1.1-0.1h-0.6V66.1z"/>
<path fill="#454545" d="M465.8,102.5V91.6h1.7c1,0,1.7,0.1,2.2,0.2c0.7,0.2,1.2,0.5,1.6,1c0.4,0.5,0.6,1,0.6,1.7
	c0,0.4-0.1,0.8-0.3,1.1c-0.2,0.3-0.5,0.7-0.9,1c0.7,0.3,1.1,0.7,1.5,1.2c0.3,0.5,0.5,1,0.5,1.7c0,0.6-0.2,1.2-0.5,1.7
	c-0.3,0.5-0.7,0.9-1.2,1.1c-0.5,0.2-1.2,0.4-2.1,0.4H465.8z M467.9,93.6v2.3h0.5c0.5,0,0.9-0.1,1.1-0.3c0.2-0.2,0.4-0.5,0.4-0.9
	c0-0.3-0.1-0.6-0.3-0.8c-0.2-0.2-0.6-0.3-1.1-0.3H467.9z M467.9,97.7v2.8h0.5c0.9,0,1.4-0.1,1.7-0.3c0.3-0.2,0.5-0.5,0.5-1
	c0-0.5-0.2-0.8-0.5-1.1c-0.4-0.3-0.9-0.4-1.8-0.4H467.9z"/>
<path fill="#454545" d="M478,91.6h2.1l4.2,10.9h-2.2l-0.9-2.3h-4.5l-0.9,2.3h-2.2L478,91.6z M479,94.5l-1.5,3.8h2.9L479,94.5z"/>
<path fill="#454545" d="M486.8,100.4c0.3,0,0.6,0.1,0.8,0.3c0.2,0.2,0.3,0.5,0.3,0.8c0,0.3-0.1,0.6-0.3,0.8
	c-0.2,0.2-0.5,0.3-0.8,0.3c-0.3,0-0.6-0.1-0.8-0.3c-0.2-0.2-0.3-0.5-0.3-0.8c0-0.3,0.1-0.6,0.3-0.8
	C486.2,100.5,486.4,100.4,486.8,100.4z"/>
<path fill="#454545" d="M411.5,297.9V287h1.7c1,0,1.7,0.1,2.2,0.2c0.7,0.2,1.2,0.5,1.6,1c0.4,0.5,0.6,1,0.6,1.7
	c0,0.4-0.1,0.8-0.3,1.1c-0.2,0.3-0.5,0.7-0.9,1c0.7,0.3,1.1,0.7,1.5,1.2c0.3,0.5,0.5,1,0.5,1.7c0,0.6-0.2,1.2-0.5,1.7
	c-0.3,0.5-0.7,0.9-1.2,1.1c-0.5,0.2-1.2,0.4-2.1,0.4H411.5z M413.6,288.9v2.3h0.5c0.5,0,0.9-0.1,1.1-0.3c0.2-0.2,0.4-0.5,0.4-0.9
	c0-0.3-0.1-0.6-0.4-0.8c-0.2-0.2-0.6-0.3-1.1-0.3H413.6z M413.6,293.1v2.8h0.5c0.9,0,1.4-0.1,1.7-0.3c0.3-0.2,0.5-0.5,0.5-1
	c0-0.5-0.2-0.8-0.5-1.1c-0.4-0.3-0.9-0.4-1.8-0.4H413.6z"/>
<path fill="#454545" d="M420.3,287h2.5c1.6,0,2.8,0.2,3.5,0.6c0.8,0.4,1.4,1,1.9,1.9c0.5,0.9,0.7,1.9,0.7,3.1c0,0.8-0.1,1.6-0.4,2.3
	c-0.3,0.7-0.7,1.3-1.2,1.8c-0.5,0.5-1,0.8-1.6,1c-0.6,0.2-1.6,0.3-3,0.3h-2.5V287z M422.4,289v6.9h1c1,0,1.6-0.1,2.1-0.3
	c0.4-0.2,0.8-0.6,1.1-1.1c0.3-0.5,0.4-1.1,0.4-1.9c0-1.2-0.3-2.1-1-2.7c-0.6-0.6-1.5-0.9-2.8-0.9H422.4z"/>
<path fill="#454545" d="M431.1,287h2.2c1.2,0,2.1,0.1,2.6,0.3c0.5,0.2,0.9,0.6,1.2,1.1c0.3,0.5,0.5,1.1,0.5,1.8
	c0,0.7-0.2,1.3-0.5,1.8c-0.3,0.5-0.9,0.8-1.6,1.1l2.6,4.9h-2.3l-2.5-4.6h-0.2v4.6h-2.1V287z M433.2,291.2h0.7c0.7,0,1.1-0.1,1.4-0.3
	c0.2-0.2,0.4-0.5,0.4-0.9c0-0.2-0.1-0.4-0.2-0.6c-0.1-0.2-0.3-0.3-0.5-0.4c-0.2-0.1-0.6-0.1-1.1-0.1h-0.6V291.2z"/>
<path fill="#454545" d="M440.8,287h2l2.5,7.6l2.6-7.6h2l1.8,10.9h-2l-1.2-6.9l-2.3,6.9h-1.8l-2.3-6.9l-1.2,6.9h-2L440.8,287z"/>
<path fill="#454545" d="M454.4,295.8c0.3,0,0.6,0.1,0.8,0.3c0.2,0.2,0.3,0.5,0.3,0.8c0,0.3-0.1,0.6-0.3,0.8
	c-0.2,0.2-0.5,0.3-0.8,0.3c-0.3,0-0.6-0.1-0.8-0.3c-0.2-0.2-0.3-0.5-0.3-0.8c0-0.3,0.1-0.6,0.3-0.8
	C453.8,295.9,454,295.8,454.4,295.8z"/>
<path fill="#454545" d="M95.8,311h2.1v8.9h3v2h-5.1V311z"/>
<path fill="#454545" d="M102.4,311h2.1v10.9h-2.1V311z"/>
<path fill="#454545" d="M105.9,311h2.1l2.7,7.8l2.8-7.8h2.1l-3.9,10.9h-2L105.9,311z"/>
<path fill="#454545" d="M117.3,311h2.1v10.9h-2.1V311z"/>
<path fill="#454545" d="M121.7,311h2l4.7,7.2V311h2.1v10.9h-2l-4.7-7.2v7.2h-2.1V311z"/>
<path fill="#454545" d="M143,312.7l-1.5,1.4c-0.9-1-2-1.5-3.2-1.5c-1.1,0-2,0.4-2.7,1.1c-0.7,0.7-1.1,1.6-1.1,2.6
	c0,1.1,0.4,1.9,1.1,2.7c0.8,0.7,1.7,1.1,2.8,1.1c0.7,0,1.3-0.2,1.8-0.5c0.5-0.3,0.9-0.8,1.2-1.4h-3.2v-2h5.5l0,0.5
	c0,1-0.2,1.9-0.7,2.7c-0.5,0.9-1.1,1.5-1.9,2c-0.8,0.5-1.7,0.7-2.8,0.7c-1.1,0-2.1-0.2-3-0.7c-0.9-0.5-1.6-1.2-2.1-2.1
	c-0.5-0.9-0.8-1.9-0.8-2.9c0-1.4,0.5-2.7,1.4-3.8c1.1-1.3,2.6-1.9,4.4-1.9c1,0,1.8,0.2,2.7,0.5C141.7,311.5,142.3,312,143,312.7z"/>
<path fill="#454545" d="M81.1,106h1.7v9h-0.9v-8.2h-1.4L81.1,106z"/>
<path fill="#454545" d="M85.9,110.5c0-1.2,0.1-2.1,0.4-2.8c0.2-0.7,0.6-1.1,1-1.5c0.4-0.3,0.9-0.5,1.5-0.5c0.6,0,1.1,0.2,1.5,0.5
	c0.5,0.3,0.8,0.8,1.1,1.5c0.3,0.7,0.4,1.6,0.4,2.7c0,1.1-0.1,2-0.4,2.7c-0.3,0.7-0.6,1.2-1.1,1.5c-0.5,0.3-1,0.5-1.5,0.5
	c-0.6,0-1-0.2-1.5-0.5c-0.4-0.3-0.8-0.8-1-1.5C86,112.6,85.9,111.7,85.9,110.5z M86.7,110.5c0,1,0.1,1.8,0.3,2.3
	c0.2,0.5,0.4,0.9,0.8,1.2c0.3,0.3,0.7,0.4,1.1,0.4c0.4,0,0.7-0.1,1.1-0.4c0.3-0.3,0.6-0.7,0.8-1.2c0.2-0.6,0.3-1.4,0.3-2.3
	c0-0.9-0.1-1.7-0.3-2.2c-0.2-0.6-0.5-1-0.8-1.3c-0.3-0.3-0.7-0.4-1.1-0.4c-0.4,0-0.7,0.1-1.1,0.4c-0.3,0.3-0.6,0.7-0.8,1.2
	C86.8,108.7,86.7,109.5,86.7,110.5z"/>
<path fill="#454545" d="M94.2,109.1l-0.5-0.3c0.1-0.3,0.2-0.6,0.3-0.7c0.1-0.2,0.1-0.4,0.1-0.7h-0.5v-1.7h1.1v1.1
	c0,0.5,0,0.9-0.1,1.2C94.5,108.4,94.4,108.7,94.2,109.1z"/>
<path fill="#454545" d="M96.8,111.3h3.2v0.8h-3.2V111.3z"/>
<path fill="#454545" d="M100.8,110.5c0-1.2,0.1-2.1,0.4-2.8c0.2-0.7,0.6-1.1,1-1.5c0.4-0.3,0.9-0.5,1.5-0.5c0.6,0,1.1,0.2,1.5,0.5
	c0.5,0.3,0.8,0.8,1.1,1.5c0.3,0.7,0.4,1.6,0.4,2.7c0,1.1-0.1,2-0.4,2.7c-0.3,0.7-0.6,1.2-1.1,1.5c-0.5,0.3-1,0.5-1.5,0.5
	c-0.6,0-1-0.2-1.5-0.5c-0.4-0.3-0.8-0.8-1-1.5C100.9,112.6,100.8,111.7,100.8,110.5z M101.6,110.5c0,1,0.1,1.8,0.3,2.3
	c0.2,0.5,0.4,0.9,0.8,1.2c0.3,0.3,0.7,0.4,1.1,0.4c0.4,0,0.7-0.1,1.1-0.4c0.3-0.3,0.6-0.7,0.8-1.2c0.2-0.6,0.3-1.4,0.3-2.3
	c0-0.9-0.1-1.7-0.3-2.2c-0.2-0.6-0.5-1-0.8-1.3c-0.3-0.3-0.7-0.4-1.1-0.4c-0.4,0-0.7,0.1-1.1,0.4c-0.3,0.3-0.6,0.7-0.8,1.2
	C101.7,108.7,101.6,109.5,101.6,110.5z"/>
<path fill="#454545" d="M108.7,109.1l-0.5-0.3c0.1-0.3,0.2-0.6,0.3-0.7c0.1-0.2,0.1-0.4,0.1-0.7h-0.5v-1.7h1.1v1.1
	c0,0.5,0,0.9-0.1,1.2C109,108.4,108.9,108.7,108.7,109.1z M111.3,109.1l-0.5-0.3c0.1-0.3,0.2-0.6,0.3-0.7c0.1-0.2,0.1-0.4,0.1-0.7
	h-0.5v-1.7h1.1v1.1c0,0.5,0,0.9-0.1,1.2C111.6,108.4,111.5,108.7,111.3,109.1z"/>
<path fill="#454545" d="M113.1,108.3h1l1.7,2.4l1.7-2.4h1l-2.2,3.2l2.5,3.5h-1l-1.9-2.8l-1.9,2.8h-1l2.4-3.5L113.1,108.3z"/>
<path fill="#454545" d="M121,115.3l-0.7-0.5l2.3-3.7c-0.3,0.1-0.6,0.2-0.9,0.2c-0.7,0-1.3-0.3-1.7-0.8c-0.5-0.5-0.7-1.2-0.7-1.9
	c0-0.5,0.1-1,0.3-1.4c0.2-0.4,0.6-0.8,1-1c0.4-0.2,0.9-0.4,1.4-0.4c0.5,0,0.9,0.1,1.3,0.4c0.4,0.2,0.7,0.6,1,1
	c0.2,0.4,0.3,0.9,0.3,1.4c0,0.4-0.1,0.8-0.2,1.2c-0.1,0.4-0.4,0.9-0.8,1.5L121,115.3z M121.9,110.4c0.5,0,0.9-0.2,1.3-0.6
	c0.4-0.4,0.5-0.8,0.5-1.3s-0.2-1-0.5-1.3c-0.4-0.4-0.8-0.6-1.3-0.6c-0.5,0-0.9,0.2-1.3,0.6c-0.4,0.4-0.5,0.8-0.5,1.3s0.2,1,0.5,1.3
	C121,110.3,121.4,110.4,121.9,110.4z"/>
<path fill="#454545" d="M127.4,109.1l-0.5-0.3c0.1-0.3,0.2-0.6,0.3-0.7c0.1-0.2,0.1-0.4,0.1-0.7h-0.5v-1.7h1.1v1.1
	c0,0.5,0,0.9-0.1,1.2C127.7,108.4,127.6,108.7,127.4,109.1z"/>
<path fill="#454545" d="M129.9,111.3h3.2v0.8h-3.2V111.3z"/>
<path fill="#454545" d="M135.9,115.3l-0.7-0.5l2.3-3.7c-0.3,0.1-0.6,0.2-0.9,0.2c-0.7,0-1.3-0.3-1.7-0.8c-0.5-0.5-0.7-1.2-0.7-1.9
	c0-0.5,0.1-1,0.3-1.4c0.2-0.4,0.6-0.8,1-1c0.4-0.2,0.9-0.4,1.4-0.4c0.5,0,0.9,0.1,1.3,0.4c0.4,0.2,0.7,0.6,1,1
	c0.2,0.4,0.3,0.9,0.3,1.4c0,0.4-0.1,0.8-0.2,1.2c-0.1,0.4-0.4,0.9-0.8,1.5L135.9,115.3z M136.8,110.4c0.5,0,0.9-0.2,1.3-0.6
	c0.4-0.4,0.5-0.8,0.5-1.3s-0.2-1-0.5-1.3c-0.4-0.4-0.8-0.6-1.3-0.6c-0.5,0-0.9,0.2-1.3,0.6c-0.4,0.4-0.5,0.8-0.5,1.3s0.2,1,0.5,1.3
	C135.9,110.3,136.3,110.4,136.8,110.4z"/>
<path fill="#454545" d="M141.8,109.1l-0.5-0.3c0.1-0.3,0.2-0.6,0.3-0.7c0.1-0.2,0.1-0.4,0.1-0.7h-0.5v-1.7h1.1v1.1
	c0,0.5,0,0.9-0.1,1.2C142.2,108.4,142,108.7,141.8,109.1z M144.5,109.1l-0.5-0.3c0.1-0.3,0.2-0.6,0.3-0.7c0.1-0.2,0.1-0.4,0.1-0.7
	h-0.5v-1.7h1.1v1.1c0,0.5,0,0.9-0.1,1.2C144.8,108.4,144.7,108.7,144.5,109.1z"/>
<path fill="#454545" d="M265.6,189.4h0.6v2.2h3.1v-2.2h0.6v5.3h-0.6v-2.6h-3.1v2.6h-0.6V189.4z"/>
<path fill="#454545" d="M270.9,189.4h0.7l2,4.1l2.1-4.1h0.7l-2.7,5.3h-0.1L270.9,189.4z"/>
<path fill="#454545" d="M279.9,189.4l2.8,5.3H282l-1-1.7h-2.6l-1,1.7h-0.7l2.9-5.3H279.9z M279.8,190.5l-1,1.9h2.1L279.8,190.5z"/>
<path fill="#454545" d="M289.3,190.3l-0.5,0.3c-0.3-0.3-0.6-0.5-1-0.7c-0.4-0.2-0.8-0.2-1.2-0.2c-0.5,0-0.9,0.1-1.4,0.3
	c-0.4,0.2-0.7,0.5-1,0.8c-0.2,0.3-0.3,0.7-0.3,1.2c0,0.6,0.3,1.2,0.8,1.6c0.5,0.4,1.2,0.6,1.9,0.6c0.9,0,1.6-0.3,2.1-0.9l0.5,0.3
	c-0.3,0.3-0.7,0.6-1.1,0.8c-0.5,0.2-1,0.3-1.5,0.3c-1.1,0-1.9-0.3-2.5-0.9c-0.5-0.5-0.8-1.1-0.8-1.9c0-0.8,0.3-1.4,0.9-2
	c0.6-0.5,1.4-0.8,2.4-0.8c0.6,0,1.1,0.1,1.5,0.3C288.7,189.7,289,190,289.3,190.3z"/>
<path fill="#454545" d="M398.7,302.8h1.7v9h-0.9v-8.2h-1.4L398.7,302.8z"/>
<path fill="#454545" d="M404.6,305.7h-0.8c0-0.9,0.3-1.6,0.9-2.2c0.5-0.6,1.2-0.9,2-0.9c0.8,0,1.4,0.3,1.9,0.8
	c0.5,0.5,0.7,1.2,0.7,1.9c0,0.5-0.1,1-0.4,1.4c-0.2,0.4-0.7,1.1-1.4,1.8l-2.2,2.4h4v0.9h-5.9l3.3-3.7c0.7-0.8,1.1-1.3,1.3-1.7
	c0.2-0.4,0.3-0.7,0.3-1.1c0-0.5-0.2-0.9-0.5-1.3c-0.4-0.4-0.8-0.6-1.3-0.6c-0.6,0-1,0.2-1.4,0.6C404.8,304.4,404.6,305,404.6,305.7z
	"/>
<path fill="#454545" d="M411.9,306l-0.5-0.3c0.1-0.3,0.2-0.6,0.3-0.7c0.1-0.2,0.1-0.4,0.1-0.7h-0.5v-1.7h1.1v1.1
	c0,0.5,0,0.9-0.1,1.2C412.2,305.2,412.1,305.6,411.9,306z"/>
<path fill="#454545" d="M414.5,308.1h3.2v0.8h-3.2V308.1z"/>
<path fill="#454545" d="M420.4,312.1l-0.7-0.5l2.3-3.7c-0.3,0.1-0.6,0.2-0.9,0.2c-0.7,0-1.3-0.3-1.7-0.8c-0.5-0.5-0.7-1.2-0.7-1.9
	c0-0.5,0.1-1,0.3-1.4c0.2-0.4,0.6-0.8,1-1c0.4-0.2,0.9-0.4,1.4-0.4c0.5,0,0.9,0.1,1.3,0.4c0.4,0.2,0.7,0.6,1,1
	c0.2,0.4,0.3,0.9,0.3,1.4c0,0.4-0.1,0.8-0.2,1.2c-0.1,0.4-0.4,0.9-0.8,1.5L420.4,312.1z M421.3,307.3c0.5,0,0.9-0.2,1.3-0.6
	c0.4-0.4,0.5-0.8,0.5-1.3c0-0.5-0.2-1-0.5-1.3c-0.4-0.4-0.8-0.6-1.3-0.6c-0.5,0-0.9,0.2-1.3,0.6c-0.4,0.4-0.5,0.8-0.5,1.3
	c0,0.5,0.2,1,0.5,1.3C420.4,307.1,420.8,307.3,421.3,307.3z"/>
<path fill="#454545" d="M426.4,306l-0.5-0.3c0.1-0.3,0.2-0.6,0.3-0.7c0.1-0.2,0.1-0.4,0.1-0.7h-0.5v-1.7h1.1v1.1
	c0,0.5,0,0.9-0.1,1.2C426.7,305.2,426.6,305.6,426.4,306z M429,306l-0.5-0.3c0.1-0.3,0.2-0.6,0.3-0.7c0.1-0.2,0.1-0.4,0.1-0.7h-0.5
	v-1.7h1.1v1.1c0,0.5,0,0.9-0.1,1.2C429.3,305.2,429.2,305.6,429,306z"/>
<path fill="#454545" d="M430.7,305.2h1l1.7,2.4l1.7-2.4h1l-2.2,3.2l2.5,3.5h-1l-1.9-2.8l-1.9,2.8h-1l2.4-3.5L430.7,305.2z"/>
<path fill="#454545" d="M438.6,302.8h1.7v9h-0.9v-8.2H438L438.6,302.8z"/>
<path fill="#454545" d="M444.6,304.9h-0.9c0.2-0.7,0.5-1.3,0.9-1.7c0.5-0.4,1-0.6,1.6-0.6c0.5,0,0.9,0.1,1.3,0.3
	c0.4,0.2,0.7,0.5,0.9,0.9c0.2,0.4,0.3,0.7,0.3,1.1c0,0.8-0.4,1.4-1.1,1.8c0.4,0.2,0.8,0.4,1,0.8c0.4,0.5,0.6,1,0.6,1.6
	c0,0.5-0.1,1-0.4,1.5c-0.3,0.5-0.6,0.8-1.1,1.1c-0.4,0.3-0.9,0.4-1.5,0.4c-0.7,0-1.4-0.2-1.9-0.7c-0.5-0.4-0.8-1.1-1-2h0.8
	c0.1,0.6,0.4,1,0.6,1.3c0.4,0.3,0.8,0.5,1.4,0.5c0.6,0,1.1-0.2,1.5-0.6c0.4-0.4,0.6-0.9,0.6-1.4c0-0.4-0.1-0.7-0.3-1
	c-0.2-0.3-0.4-0.5-0.8-0.7c-0.3-0.2-0.8-0.3-1.5-0.3v-0.8c0.4,0,0.8-0.1,1.1-0.2c0.3-0.1,0.6-0.3,0.7-0.6c0.1-0.2,0.2-0.5,0.2-0.7
	c0-0.4-0.2-0.7-0.5-1c-0.3-0.3-0.7-0.4-1.1-0.4c-0.4,0-0.7,0.1-1,0.3C445,304,444.8,304.4,444.6,304.9z"/>
<path fill="#454545" d="M451.7,306l-0.5-0.3c0.1-0.3,0.2-0.6,0.3-0.7c0.1-0.2,0.1-0.4,0.1-0.7h-0.5v-1.7h1.1v1.1
	c0,0.5,0,0.9-0.1,1.2C452,305.2,451.9,305.6,451.7,306z"/>
<path fill="#454545" d="M454.3,308.1h3.2v0.8h-3.2V308.1z"/>
<path fill="#454545" d="M462.5,306.9c0.6,0.3,1,0.6,1.3,1c0.3,0.4,0.4,0.8,0.4,1.3c0,0.7-0.2,1.3-0.7,1.8c-0.5,0.7-1.3,1-2.3,1
	c-1,0-1.7-0.3-2.2-0.9c-0.5-0.6-0.7-1.2-0.7-1.9c0-0.5,0.1-1,0.4-1.4c0.3-0.4,0.7-0.8,1.3-1.1c-0.4-0.2-0.7-0.5-1-0.9
	c-0.2-0.3-0.3-0.7-0.3-1.1c0-0.4,0.1-0.8,0.3-1.2c0.2-0.4,0.5-0.7,0.9-0.9c0.4-0.2,0.8-0.3,1.3-0.3c0.5,0,0.9,0.1,1.3,0.3
	s0.7,0.5,0.9,0.9c0.2,0.4,0.3,0.8,0.3,1.2c0,0.4-0.1,0.8-0.3,1.1C463.2,306.4,462.9,306.7,462.5,306.9z M461.3,307.4
	c-0.6,0-1.1,0.2-1.5,0.6c-0.4,0.4-0.6,0.9-0.6,1.4c0,0.3,0.1,0.6,0.3,0.9c0.2,0.3,0.4,0.5,0.7,0.7c0.3,0.2,0.7,0.2,1.1,0.2
	c0.6,0,1.1-0.2,1.5-0.6c0.4-0.4,0.6-0.8,0.6-1.4c0-0.5-0.2-1-0.6-1.3C462.3,307.6,461.8,307.4,461.3,307.4z M461.2,303.5
	c-0.5,0-0.9,0.1-1.2,0.4c-0.3,0.3-0.5,0.6-0.5,1c0,0.4,0.2,0.8,0.5,1.1c0.3,0.3,0.7,0.5,1.2,0.5c0.3,0,0.6-0.1,0.8-0.2
	c0.3-0.1,0.5-0.3,0.6-0.6c0.1-0.3,0.2-0.5,0.2-0.8c0-0.4-0.1-0.7-0.4-1C462.2,303.6,461.8,303.5,461.2,303.5z"/>
<path fill="#454545" d="M466.2,306l-0.5-0.3c0.1-0.3,0.2-0.6,0.3-0.7c0.1-0.2,0.1-0.4,0.1-0.7h-0.5v-1.7h1.1v1.1
	c0,0.5,0,0.9-0.1,1.2C466.5,305.2,466.4,305.6,466.2,306z M468.8,306l-0.5-0.3c0.1-0.3,0.2-0.6,0.3-0.7c0.1-0.2,0.1-0.4,0.1-0.7
	h-0.5v-1.7h1.1v1.1c0,0.5,0,0.9-0.1,1.2C469.1,305.2,469,305.6,468.8,306z"/>
<path fill="#454545" d="M85.3,327.5H87v9h-0.9v-8.2h-1.4L85.3,327.5z"/>
<path fill="#454545" d="M91.1,330.3h-0.8c0-0.9,0.3-1.6,0.9-2.2c0.5-0.6,1.2-0.9,2-0.9c0.8,0,1.4,0.3,1.9,0.8
	c0.5,0.5,0.7,1.2,0.7,1.9c0,0.5-0.1,1-0.4,1.4c-0.2,0.4-0.7,1.1-1.4,1.8l-2.2,2.4h4v0.9h-5.9l3.3-3.7c0.7-0.8,1.1-1.3,1.3-1.7
	c0.2-0.4,0.3-0.7,0.3-1.1c0-0.5-0.2-0.9-0.5-1.3c-0.4-0.4-0.8-0.6-1.3-0.6c-0.6,0-1,0.2-1.4,0.6C91.3,329.1,91.1,329.6,91.1,330.3z"
	/>
<path fill="#454545" d="M98.4,330.7l-0.5-0.3c0.1-0.3,0.2-0.6,0.3-0.7c0.1-0.2,0.1-0.4,0.1-0.7h-0.5v-1.7h1.1v1.1
	c0,0.5,0,0.9-0.1,1.2C98.7,329.9,98.6,330.2,98.4,330.7z"/>
<path fill="#454545" d="M101,332.8h3.2v0.8H101V332.8z"/>
<path fill="#454545" d="M105.4,327.5h5.5l-4.6,9.3l-0.7-0.4l4-8h-4.1V327.5z"/>
<path fill="#454545" d="M112.9,330.7l-0.5-0.3c0.1-0.3,0.2-0.6,0.3-0.7c0.1-0.2,0.1-0.4,0.1-0.7h-0.5v-1.7h1.1v1.1
	c0,0.5,0,0.9-0.1,1.2C113.2,329.9,113.1,330.2,112.9,330.7z M115.5,330.7l-0.5-0.3c0.1-0.3,0.2-0.6,0.3-0.7c0.1-0.2,0.1-0.4,0.1-0.7
	h-0.5v-1.7h1.1v1.1c0,0.5,0,0.9-0.1,1.2C115.8,329.9,115.7,330.2,115.5,330.7z"/>
<path fill="#454545" d="M117.3,329.9h1l1.7,2.4l1.7-2.4h1l-2.2,3.2l2.5,3.5h-1l-1.9-2.8l-1.9,2.8h-1l2.4-3.5L117.3,329.9z"/>
<path fill="#454545" d="M125.1,327.5h1.7v9h-0.9v-8.2h-1.4L125.1,327.5z"/>
<path fill="#454545" d="M131.7,327.5h1.7v9h-0.9v-8.2h-1.4L131.7,327.5z"/>
<path fill="#454545" d="M138.2,330.7l-0.5-0.3c0.1-0.3,0.2-0.6,0.3-0.7c0.1-0.2,0.1-0.4,0.1-0.7h-0.5v-1.7h1.1v1.1
	c0,0.5,0,0.9-0.1,1.2C138.6,329.9,138.4,330.2,138.2,330.7z"/>
<path fill="#454545" d="M140.8,332.8h3.2v0.8h-3.2V332.8z"/>
<path fill="#454545" d="M144.8,332c0-1.2,0.1-2.1,0.4-2.8s0.6-1.1,1-1.5c0.4-0.3,0.9-0.5,1.5-0.5c0.6,0,1.1,0.2,1.5,0.5
	c0.5,0.3,0.8,0.8,1.1,1.5c0.3,0.7,0.4,1.6,0.4,2.7c0,1.1-0.1,2-0.4,2.7c-0.3,0.7-0.6,1.2-1.1,1.5c-0.5,0.3-1,0.5-1.5,0.5
	c-0.6,0-1-0.2-1.5-0.5c-0.4-0.3-0.8-0.8-1-1.5C144.9,334.1,144.8,333.2,144.8,332z M145.6,332.1c0,1,0.1,1.8,0.3,2.3
	c0.2,0.5,0.4,0.9,0.8,1.2c0.3,0.3,0.7,0.4,1.1,0.4c0.4,0,0.7-0.1,1.1-0.4c0.3-0.3,0.6-0.7,0.8-1.2c0.2-0.6,0.3-1.4,0.3-2.3
	c0-0.9-0.1-1.7-0.3-2.2c-0.2-0.6-0.5-1-0.8-1.3c-0.3-0.3-0.7-0.4-1.1-0.4c-0.4,0-0.7,0.1-1.1,0.4c-0.3,0.3-0.6,0.7-0.8,1.2
	C145.7,330.3,145.6,331,145.6,332.1z"/>
<path fill="#454545" d="M152.7,330.7l-0.5-0.3c0.1-0.3,0.2-0.6,0.3-0.7c0.1-0.2,0.1-0.4,0.1-0.7h-0.5v-1.7h1.1v1.1
	c0,0.5,0,0.9-0.1,1.2C153,329.9,152.9,330.2,152.7,330.7z M155.3,330.7l-0.5-0.3c0.1-0.3,0.2-0.6,0.3-0.7c0.1-0.2,0.1-0.4,0.1-0.7
	h-0.5v-1.7h1.1v1.1c0,0.5,0,0.9-0.1,1.2C155.6,329.9,155.5,330.2,155.3,330.7z"/>
<path fill="#454545" d="M216.8,77.6h0.2V84h1v0.9h-1v2.1h-0.9v-2.1H212L216.8,77.6z M216.1,84v-3.8l-2.6,3.8H216.1z"/>
<path fill="#454545" d="M220.4,81l-0.5-0.3c0.1-0.3,0.2-0.6,0.3-0.7c0.1-0.2,0.1-0.4,0.1-0.7h-0.5v-1.7h1.1v1.1c0,0.5,0,0.9-0.1,1.2
	C220.7,80.2,220.6,80.6,220.4,81z"/>
<path fill="#454545" d="M223,83.1h3.2v0.8H223V83.1z"/>
<path fill="#454545" d="M231.2,82c0.6,0.3,1,0.6,1.3,1c0.3,0.4,0.4,0.8,0.4,1.3c0,0.7-0.2,1.3-0.7,1.8c-0.5,0.7-1.3,1-2.3,1
	c-1,0-1.7-0.3-2.2-0.9c-0.5-0.6-0.7-1.2-0.7-1.9c0-0.5,0.1-1,0.4-1.4c0.3-0.4,0.7-0.8,1.3-1.1c-0.4-0.2-0.7-0.5-1-0.9
	c-0.2-0.3-0.3-0.7-0.3-1.1c0-0.4,0.1-0.8,0.3-1.2c0.2-0.4,0.5-0.7,0.9-0.9c0.4-0.2,0.8-0.3,1.3-0.3c0.5,0,0.9,0.1,1.3,0.3
	c0.4,0.2,0.7,0.5,0.9,0.9c0.2,0.4,0.3,0.8,0.3,1.2c0,0.4-0.1,0.8-0.3,1.1C231.9,81.4,231.6,81.7,231.2,82z M230,82.4
	c-0.6,0-1.1,0.2-1.5,0.6c-0.4,0.4-0.6,0.9-0.6,1.4c0,0.3,0.1,0.6,0.3,0.9c0.2,0.3,0.4,0.5,0.7,0.7c0.3,0.2,0.7,0.2,1.1,0.2
	c0.6,0,1.1-0.2,1.5-0.6c0.4-0.4,0.6-0.8,0.6-1.4c0-0.5-0.2-1-0.6-1.3C231,82.6,230.5,82.4,230,82.4z M229.9,78.5
	c-0.5,0-0.9,0.1-1.2,0.4s-0.5,0.6-0.5,1c0,0.4,0.2,0.8,0.5,1.1c0.3,0.3,0.7,0.5,1.2,0.5c0.3,0,0.6-0.1,0.8-0.2
	c0.3-0.1,0.5-0.3,0.6-0.6c0.1-0.3,0.2-0.5,0.2-0.8c0-0.4-0.1-0.7-0.4-1C230.9,78.7,230.5,78.5,229.9,78.5z"/>
<path fill="#454545" d="M234.9,81l-0.5-0.3c0.1-0.3,0.2-0.6,0.3-0.7c0.1-0.2,0.1-0.4,0.1-0.7h-0.5v-1.7h1.1v1.1c0,0.5,0,0.9-0.1,1.2
	C235.2,80.2,235.1,80.6,234.9,81z M237.5,81l-0.5-0.3c0.1-0.3,0.2-0.6,0.3-0.7c0.1-0.2,0.1-0.4,0.1-0.7h-0.5v-1.7h1.1v1.1
	c0,0.5,0,0.9-0.1,1.2C237.8,80.2,237.7,80.6,237.5,81z"/>
<path fill="#454545" d="M239.3,80.2h1l1.7,2.4l1.7-2.4h1l-2.2,3.2l2.5,3.5h-1l-1.9-2.8l-1.9,2.8h-1l2.4-3.5L239.3,80.2z"/>
<path fill="#454545" d="M245.7,77.9h5.5l-4.6,9.3l-0.7-0.4l4-8h-4.1V77.9z"/>
<path fill="#454545" d="M253.6,81l-0.5-0.3c0.1-0.3,0.2-0.6,0.3-0.7c0.1-0.2,0.1-0.4,0.1-0.7H253v-1.7h1.1v1.1c0,0.5,0,0.9-0.1,1.2
	C253.9,80.2,253.8,80.6,253.6,81z"/>
<path fill="#454545" d="M256.1,83.1h3.2v0.8h-3.2V83.1z"/>
<path fill="#454545" d="M264.2,77.6l0.7,0.5l-2.3,3.7c0.3-0.1,0.6-0.2,0.9-0.2c0.7,0,1.3,0.3,1.7,0.8c0.5,0.5,0.7,1.2,0.7,1.9
	c0,0.5-0.1,1-0.3,1.4c-0.2,0.4-0.6,0.8-1,1c-0.4,0.2-0.9,0.4-1.4,0.4c-0.5,0-0.9-0.1-1.3-0.4c-0.4-0.2-0.7-0.6-1-1
	c-0.2-0.4-0.3-0.9-0.3-1.4c0-0.4,0.1-0.8,0.2-1.2c0.1-0.4,0.4-0.9,0.8-1.5L264.2,77.6z M263.2,82.5c-0.5,0-0.9,0.2-1.3,0.6
	c-0.4,0.4-0.5,0.8-0.5,1.3c0,0.5,0.2,1,0.5,1.3c0.4,0.4,0.8,0.6,1.3,0.6c0.5,0,0.9-0.2,1.3-0.6c0.4-0.4,0.5-0.8,0.5-1.3
	c0-0.5-0.2-1-0.5-1.3C264.1,82.6,263.7,82.5,263.2,82.5z"/>
<path fill="#454545" d="M268,81l-0.5-0.3c0.1-0.3,0.2-0.6,0.3-0.7c0.1-0.2,0.1-0.4,0.1-0.7h-0.5v-1.7h1.1v1.1c0,0.5,0,0.9-0.1,1.2
	C268.4,80.2,268.2,80.6,268,81z M270.7,81l-0.5-0.3c0.1-0.3,0.2-0.6,0.3-0.7c0.1-0.2,0.1-0.4,0.1-0.7h-0.5v-1.7h1.1v1.1
	c0,0.5,0,0.9-0.1,1.2C271,80.2,270.9,80.6,270.7,81z"/>
<path fill="#454545" d="M448.4,112.4c0.6,0.3,1,0.6,1.3,1c0.3,0.4,0.4,0.8,0.4,1.3c0,0.7-0.2,1.3-0.7,1.8c-0.5,0.7-1.3,1-2.3,1
	c-1,0-1.7-0.3-2.2-0.9c-0.5-0.6-0.7-1.2-0.7-1.9c0-0.5,0.1-1,0.4-1.4c0.3-0.4,0.7-0.8,1.3-1.1c-0.4-0.2-0.7-0.5-1-0.9
	c-0.2-0.3-0.3-0.7-0.3-1.1c0-0.4,0.1-0.8,0.3-1.2c0.2-0.4,0.5-0.7,0.9-0.9c0.4-0.2,0.8-0.3,1.3-0.3c0.5,0,0.9,0.1,1.3,0.3
	c0.4,0.2,0.7,0.5,0.9,0.9c0.2,0.4,0.3,0.8,0.3,1.2c0,0.4-0.1,0.8-0.3,1.1C449.1,111.9,448.8,112.2,448.4,112.4z M447.1,112.9
	c-0.6,0-1.1,0.2-1.5,0.6c-0.4,0.4-0.6,0.9-0.6,1.4c0,0.3,0.1,0.6,0.3,0.9c0.2,0.3,0.4,0.5,0.7,0.7c0.3,0.2,0.7,0.2,1.1,0.2
	c0.6,0,1.1-0.2,1.5-0.6c0.4-0.4,0.6-0.8,0.6-1.4c0-0.5-0.2-1-0.6-1.3C448.2,113.1,447.7,112.9,447.1,112.9z M447.1,109
	c-0.5,0-0.9,0.1-1.2,0.4c-0.3,0.3-0.5,0.6-0.5,1c0,0.4,0.2,0.8,0.5,1.1c0.3,0.3,0.7,0.5,1.2,0.5c0.3,0,0.6-0.1,0.8-0.2
	c0.3-0.1,0.5-0.3,0.6-0.6c0.1-0.3,0.2-0.5,0.2-0.8c0-0.4-0.1-0.7-0.4-1C448.1,109.1,447.6,109,447.1,109z"/>
<path fill="#454545" d="M452.5,111.5l-0.5-0.3c0.1-0.3,0.2-0.6,0.3-0.7c0.1-0.2,0.1-0.4,0.1-0.7h-0.5v-1.7h1.1v1.1
	c0,0.5,0,0.9-0.1,1.2C452.8,110.7,452.7,111.1,452.5,111.5z"/>
<path fill="#454545" d="M455,113.6h3.2v0.8H455V113.6z"/>
<path fill="#454545" d="M459,112.9c0-1.2,0.1-2.1,0.4-2.8c0.2-0.7,0.6-1.1,1-1.5c0.4-0.3,0.9-0.5,1.5-0.5c0.6,0,1.1,0.2,1.5,0.5
	c0.5,0.3,0.8,0.8,1.1,1.5c0.3,0.7,0.4,1.6,0.4,2.7c0,1.1-0.1,2-0.4,2.7c-0.3,0.7-0.6,1.2-1.1,1.5c-0.5,0.3-1,0.5-1.5,0.5
	c-0.6,0-1-0.2-1.5-0.5c-0.4-0.3-0.8-0.8-1-1.5C459.2,115,459,114,459,112.9z M459.9,112.9c0,1,0.1,1.8,0.3,2.3
	c0.2,0.5,0.4,0.9,0.8,1.2c0.3,0.3,0.7,0.4,1.1,0.4c0.4,0,0.7-0.1,1.1-0.4c0.3-0.3,0.6-0.7,0.8-1.2c0.2-0.6,0.3-1.4,0.3-2.3
	c0-0.9-0.1-1.7-0.3-2.2c-0.2-0.6-0.5-1-0.8-1.3c-0.3-0.3-0.7-0.4-1.1-0.4c-0.4,0-0.7,0.1-1.1,0.4c-0.3,0.3-0.6,0.7-0.8,1.2
	C459.9,111.1,459.9,111.8,459.9,112.9z"/>
<path fill="#454545" d="M466.9,111.5l-0.5-0.3c0.1-0.3,0.2-0.6,0.3-0.7c0.1-0.2,0.1-0.4,0.1-0.7h-0.5v-1.7h1.1v1.1
	c0,0.5,0,0.9-0.1,1.2C467.3,110.7,467.1,111.1,466.9,111.5z M469.6,111.5l-0.5-0.3c0.1-0.3,0.2-0.6,0.3-0.7c0.1-0.2,0.1-0.4,0.1-0.7
	H469v-1.7h1.1v1.1c0,0.5,0,0.9-0.1,1.2C469.9,110.7,469.8,111.1,469.6,111.5z"/>
<path fill="#454545" d="M471.3,110.7h1l1.7,2.4l1.7-2.4h1l-2.2,3.2l2.5,3.5h-1l-1.9-2.8l-1.9,2.8h-1l2.4-3.5L471.3,110.7z"/>
<path fill="#454545" d="M481.5,112.4c0.6,0.3,1,0.6,1.3,1c0.3,0.4,0.4,0.8,0.4,1.3c0,0.7-0.2,1.3-0.7,1.8c-0.5,0.7-1.3,1-2.3,1
	c-1,0-1.7-0.3-2.2-0.9c-0.5-0.6-0.7-1.2-0.7-1.9c0-0.5,0.1-1,0.4-1.4c0.3-0.4,0.7-0.8,1.3-1.1c-0.4-0.2-0.7-0.5-1-0.9
	c-0.2-0.3-0.3-0.7-0.3-1.1c0-0.4,0.1-0.8,0.3-1.2c0.2-0.4,0.5-0.7,0.9-0.9c0.4-0.2,0.8-0.3,1.3-0.3c0.5,0,0.9,0.1,1.3,0.3
	c0.4,0.2,0.7,0.5,0.9,0.9c0.2,0.4,0.3,0.8,0.3,1.2c0,0.4-0.1,0.8-0.3,1.1C482.3,111.9,482,112.2,481.5,112.4z M480.3,112.9
	c-0.6,0-1.1,0.2-1.5,0.6c-0.4,0.4-0.6,0.9-0.6,1.4c0,0.3,0.1,0.6,0.3,0.9c0.2,0.3,0.4,0.5,0.7,0.7c0.3,0.2,0.7,0.2,1.1,0.2
	c0.6,0,1.1-0.2,1.5-0.6c0.4-0.4,0.6-0.8,0.6-1.4c0-0.5-0.2-1-0.6-1.3C481.3,113.1,480.9,112.9,480.3,112.9z M480.3,109
	c-0.5,0-0.9,0.1-1.2,0.4c-0.3,0.3-0.5,0.6-0.5,1c0,0.4,0.2,0.8,0.5,1.1c0.3,0.3,0.7,0.5,1.2,0.5c0.3,0,0.6-0.1,0.8-0.2
	c0.3-0.1,0.5-0.3,0.6-0.6c0.1-0.3,0.2-0.5,0.2-0.8c0-0.4-0.1-0.7-0.4-1C481.2,109.1,480.8,109,480.3,109z"/>
<path fill="#454545" d="M485.6,111.5l-0.5-0.3c0.1-0.3,0.2-0.6,0.3-0.7c0.1-0.2,0.1-0.4,0.1-0.7h-0.5v-1.7h1.1v1.1
	c0,0.5,0,0.9-0.1,1.2C486,110.7,485.8,111.1,485.6,111.5z"/>
<path fill="#454545" d="M488.2,113.6h3.2v0.8h-3.2V113.6z"/>
<path fill="#454545" d="M494,108.3h1.7v9h-0.9v-8.2h-1.4L494,108.3z"/>
<path fill="#454545" d="M498.9,112.9c0-1.2,0.1-2.1,0.4-2.8c0.2-0.7,0.6-1.1,1-1.5c0.4-0.3,0.9-0.5,1.5-0.5c0.6,0,1.1,0.2,1.5,0.5
	c0.5,0.3,0.8,0.8,1.1,1.5c0.3,0.7,0.4,1.6,0.4,2.7c0,1.1-0.1,2-0.4,2.7c-0.3,0.7-0.6,1.2-1.1,1.5c-0.5,0.3-1,0.5-1.5,0.5
	c-0.6,0-1-0.2-1.5-0.5c-0.4-0.3-0.8-0.8-1-1.5C499,115,498.9,114,498.9,112.9z M499.7,112.9c0,1,0.1,1.8,0.3,2.3
	c0.2,0.5,0.4,0.9,0.8,1.2c0.3,0.3,0.7,0.4,1.1,0.4c0.4,0,0.7-0.1,1.1-0.4c0.3-0.3,0.6-0.7,0.8-1.2c0.2-0.6,0.3-1.4,0.3-2.3
	c0-0.9-0.1-1.7-0.3-2.2c-0.2-0.6-0.5-1-0.8-1.3c-0.3-0.3-0.7-0.4-1.1-0.4c-0.4,0-0.7,0.1-1.1,0.4c-0.3,0.3-0.6,0.7-0.8,1.2
	C499.8,111.1,499.7,111.8,499.7,112.9z"/>
<path fill="#454545" d="M506.8,111.5l-0.5-0.3c0.1-0.3,0.2-0.6,0.3-0.7c0.1-0.2,0.1-0.4,0.1-0.7h-0.5v-1.7h1.1v1.1
	c0,0.5,0,0.9-0.1,1.2C507.1,110.7,507,111.1,506.8,111.5z M509.4,111.5l-0.5-0.3c0.1-0.3,0.2-0.6,0.3-0.7c0.1-0.2,0.1-0.4,0.1-0.7
	h-0.5v-1.7h1.1v1.1c0,0.5,0,0.9-0.1,1.2C509.7,110.7,509.6,111.1,509.4,111.5z"/>
<path fill="#454545" d="M499.3,40.2h0.6v5.4h2.4v0.6h-3V40.2z"/>
<path fill="#454545" d="M503.1,40.2h0.6v6h-0.6V40.2z"/>
<path fill="#454545" d="M505.2,46.2v-6h0.1l4.1,4.6v-4.6h0.6v6h-0.1l-4.1-4.5v4.5H505.2z"/>
<path fill="#454545" d="M511.5,40.2h3.5v0.6h-2.9v1.9h2.9v0.6h-2.9v2.3h2.9v0.6h-3.5V40.2z"/>
<path fill="#454545" d="M516.1,46.2v-6h0.1l4.1,4.6v-4.6h0.6v6h-0.1l-4.1-4.5v4.5H516.1z"/>
<path fill="#454545" d="M299.6,34.9c0.9,0,1.7,0.3,2.4,0.9c0.6,0.6,1,1.3,1,2.2c0,0.9-0.3,1.6-1,2.2c-0.6,0.6-1.4,0.9-2.3,0.9
	c-0.9,0-1.7-0.3-2.3-0.9c-0.6-0.6-1-1.3-1-2.2c0-0.6,0.1-1.1,0.4-1.6c0.3-0.5,0.7-0.9,1.2-1.1C298.5,35,299.1,34.9,299.6,34.9z
	 M299.7,35.5c-0.5,0-0.9,0.1-1.3,0.3c-0.4,0.2-0.7,0.5-1,0.9c-0.2,0.4-0.3,0.8-0.3,1.3c0,0.7,0.3,1.3,0.8,1.8
	c0.5,0.5,1.1,0.7,1.9,0.7c0.5,0,0.9-0.1,1.3-0.3c0.4-0.2,0.7-0.5,1-0.9c0.2-0.4,0.3-0.8,0.3-1.3c0-0.5-0.1-0.9-0.3-1.3
	c-0.2-0.4-0.6-0.7-1-0.9C300.6,35.6,300.1,35.5,299.7,35.5z"/>
<path fill="#454545" d="M304.2,35h1.2c0.7,0,1.2,0,1.4,0.1c0.4,0.1,0.6,0.3,0.9,0.5c0.2,0.3,0.3,0.6,0.3,1c0,0.4-0.1,0.7-0.3,1
	c-0.2,0.3-0.5,0.4-0.9,0.5c-0.3,0.1-0.8,0.1-1.6,0.1h-0.4v2.7h-0.6V35z M304.8,35.6v2l1.1,0c0.4,0,0.7,0,0.9-0.1
	c0.2-0.1,0.4-0.2,0.5-0.4c0.1-0.2,0.2-0.3,0.2-0.5c0-0.2-0.1-0.4-0.2-0.5s-0.3-0.3-0.4-0.3c-0.2-0.1-0.5-0.1-0.9-0.1H304.8z"/>
<path fill="#454545" d="M308.7,35.6V35h3.4v0.6h-1.4v5.3h-0.6v-5.3H308.7z"/>
<path fill="#454545" d="M313.6,40c0.1,0,0.3,0,0.4,0.1c0.1,0.1,0.2,0.2,0.2,0.4c0,0.1-0.1,0.3-0.2,0.3c-0.1,0.1-0.2,0.1-0.4,0.1
	c-0.1,0-0.3,0-0.4-0.1c-0.1-0.1-0.2-0.2-0.2-0.3c0-0.1,0.1-0.3,0.2-0.4C313.3,40.1,313.4,40,313.6,40z"/>
<path fill="#454545" d="M295.6,45.5h0.6v5.3h2.4v0.6h-3V45.5z"/>
<path fill="#454545" d="M302.2,45.5l2.9,5.9h-0.7l-1-1.9h-2.7l-1,1.9h-0.7l2.9-5.9H302.2z M302.1,46.8l-1.1,2.1h2.1L302.1,46.8z"/>
<path fill="#454545" d="M306.1,45.5h0.6v3.5c0,0.4,0,0.7,0,0.8c0,0.2,0.1,0.4,0.2,0.6c0.1,0.2,0.3,0.3,0.5,0.4
	c0.2,0.1,0.5,0.2,0.7,0.2c0.2,0,0.4,0,0.6-0.1c0.2-0.1,0.3-0.2,0.5-0.3c0.1-0.1,0.2-0.3,0.3-0.5c0-0.1,0.1-0.5,0.1-0.9v-3.5h0.6v3.5
	c0,0.5-0.1,0.9-0.2,1.3c-0.1,0.3-0.3,0.6-0.7,0.8c-0.3,0.2-0.7,0.4-1.2,0.4c-0.5,0-0.9-0.1-1.3-0.3c-0.4-0.2-0.6-0.5-0.7-0.9
	c-0.1-0.2-0.1-0.6-0.1-1.2V45.5z"/>
<path fill="#454545" d="M311.7,51.4v-5.9h0.1L316,50v-4.5h0.6v5.9h-0.1l-4.1-4.4v4.4H311.7z"/>
<path fill="#454545" d="M318.1,51.4v-5.9h1.3c0.9,0,1.6,0.1,2,0.2c0.6,0.2,1.1,0.5,1.4,1c0.3,0.5,0.5,1.1,0.5,1.8
	c0,0.6-0.1,1.1-0.4,1.5c-0.3,0.4-0.6,0.8-1,1c-0.4,0.2-1,0.3-1.8,0.3H318.1z M318.7,50.8h0.7c0.9,0,1.5-0.1,1.8-0.2
	c0.5-0.1,0.8-0.4,1.1-0.8c0.3-0.4,0.4-0.8,0.4-1.4c0-0.6-0.1-1-0.4-1.4c-0.3-0.4-0.7-0.7-1.2-0.8c-0.4-0.1-1-0.2-1.9-0.2h-0.4V50.8z
	"/>
<path fill="#454545" d="M324.6,45.5h1.2c0.7,0,1.2,0,1.4,0.1c0.4,0.1,0.7,0.3,0.9,0.5c0.2,0.3,0.3,0.6,0.3,1c0,0.3-0.1,0.6-0.2,0.8
	c-0.2,0.2-0.4,0.4-0.7,0.5c-0.3,0.1-0.7,0.2-1.2,0.2l2.2,2.7h-0.8l-2.2-2.7h-0.4v2.7h-0.6V45.5z M325.2,46.1v2l1.1,0
	c0.4,0,0.7,0,0.9-0.1c0.2-0.1,0.4-0.2,0.5-0.4c0.1-0.2,0.2-0.3,0.2-0.5c0-0.2-0.1-0.4-0.2-0.5c-0.1-0.2-0.3-0.3-0.4-0.3
	c-0.2-0.1-0.5-0.1-0.9-0.1H325.2z"/>
<path fill="#454545" d="M329.3,45.5h0.7l1.6,2.4l1.6-2.4h0.7l-2,3.1v2.8h-0.6v-2.8L329.3,45.5z"/>
</svg>
